<?xml version="1.0" standalone="no"?>
<!DOCTYPE svg PUBLIC "-//W3C//DTD SVG 20010904//EN"
 "http://www.w3.org/TR/2001/REC-SVG-20010904/DTD/svg10.dtd">
<svg version="1.0" xmlns="http://www.w3.org/2000/svg"
 width="879.000000pt" height="879.000000pt" viewBox="0 0 879.000000 879.000000"
 preserveAspectRatio="xMidYMid meet">
<metadata>
Created by potrace 1.11, written by Peter Selinger 2001-2013
</metadata>
<g transform="translate(0.000000,879.000000) scale(0.100000,-0.100000)"
fill="#000000" stroke="none">
<path d="M5629 8011 c10 -18 8 -21 -14 -27 -14 -3 -41 -4 -61 -2 -33 4 -34 3
-18 -10 17 -13 16 -14 -13 -10 -18 2 -30 1 -27 -3 7 -12 -50 -21 -81 -13 -20
5 -26 4 -21 -5 5 -7 -4 -11 -28 -11 -19 0 -43 -3 -53 -6 -15 -5 -15 -4 -3 5
11 8 5 9 -25 4 -47 -7 -58 -13 -24 -13 39 0 0 -20 -41 -20 l-35 -1 25 -14 c24
-14 23 -14 -30 -16 -50 -1 -52 -2 -20 -9 l35 -7 -40 -3 c-39 -2 -39 -3 -10 -9
27 -6 23 -9 -38 -21 -41 -8 -62 -17 -55 -22 9 -5 8 -8 -5 -8 -10 0 -15 -5 -12
-10 3 -6 18 -8 33 -5 27 5 26 5 -3 -9 -16 -9 -39 -15 -50 -16 -28 -1 -114 -29
-92 -29 10 -1 16 -5 13 -10 -3 -4 -18 -6 -33 -4 -21 3 -24 2 -13 -6 11 -8 4
-13 -33 -23 -44 -11 -63 -28 -34 -28 6 -1 1 -7 -13 -15 l-25 -15 30 5 30 5
-27 -11 c-15 -5 -25 -16 -22 -23 6 -15 -49 -36 -102 -37 -23 -1 -30 -4 -16 -6
37 -7 24 -23 -20 -24 -24 -1 -35 -3 -25 -6 15 -4 16 -7 5 -21 -11 -14 -10 -15
7 -9 16 6 15 3 -5 -13 -14 -11 -31 -20 -37 -20 -7 0 -13 -4 -13 -9 0 -5 -9
-13 -20 -16 -12 -4 -20 -14 -18 -23 5 -30 -11 -43 -35 -31 -12 7 -19 8 -15 4
4 -5 3 -14 -3 -22 -9 -9 -8 -13 0 -13 6 0 11 -5 11 -11 0 -6 -7 -9 -14 -6 -10
4 -13 1 -9 -9 3 -9 -1 -14 -14 -14 -28 0 -35 -11 -16 -25 15 -11 15 -15 4 -29
-7 -9 -20 -16 -28 -16 -8 0 -11 -5 -8 -11 4 -6 14 -8 22 -5 8 4 11 1 8 -5 -4
-6 -13 -8 -19 -6 -7 3 -19 1 -27 -4 -11 -7 -9 -9 8 -9 34 0 35 -14 3 -45 -21
-20 -26 -31 -18 -36 8 -5 -1 -19 -25 -43 -21 -20 -32 -36 -25 -36 7 0 2 -6
-11 -13 -13 -6 -24 -16 -24 -22 0 -5 -9 -16 -19 -24 -14 -10 -17 -16 -8 -21 8
-5 3 -14 -16 -29 -15 -12 -24 -24 -21 -27 4 -4 0 -16 -8 -27 -11 -15 -12 -24
-3 -34 8 -10 6 -13 -8 -14 -11 0 -14 -3 -6 -6 18 -7 15 -40 -5 -52 -10 -6 -14
-11 -9 -11 5 0 -1 -9 -14 -20 l-23 -20 21 -7 c23 -9 19 -23 -13 -42 -19 -12
-19 -12 3 -8 15 4 22 0 22 -10 0 -10 -6 -12 -19 -8 -11 3 -23 0 -27 -6 -5 -9
-2 -10 9 -6 20 8 21 3 5 -22 -9 -15 -9 -26 -1 -44 13 -28 1 -47 -29 -47 -51 0
-98 -59 -98 -123 0 -12 -16 -56 -36 -97 -73 -152 -105 -235 -134 -355 -27
-110 -30 -137 -28 -271 1 -163 10 -200 56 -230 15 -10 40 -20 57 -24 25 -5 31
-11 33 -38 2 -17 -6 -53 -18 -79 -12 -26 -23 -58 -25 -71 -1 -12 -4 -24 -6
-25 -2 -2 -40 -9 -84 -16 -127 -20 -249 -66 -390 -146 -71 -41 -188 -99 -260
-130 -71 -31 -143 -63 -159 -71 -16 -8 -48 -14 -71 -14 -23 0 -82 -7 -131 -15
-49 -9 -165 -27 -259 -41 -93 -14 -208 -34 -255 -44 -47 -10 -202 -40 -345
-65 -143 -26 -314 -59 -380 -75 -66 -15 -147 -33 -180 -40 -33 -6 -130 -29
-215 -50 -85 -21 -229 -55 -320 -75 -183 -41 -273 -73 -485 -176 -173 -84
-221 -128 -272 -255 -39 -96 -77 -261 -76 -329 1 -64 51 -290 108 -489 292
-1026 971 -1927 1887 -2504 138 -87 461 -254 628 -325 565 -240 1201 -361
1810 -344 521 15 1017 117 1514 310 134 52 617 288 634 310 5 7 6 73 0 168 -7
143 -6 160 12 214 29 84 26 117 -12 161 -18 20 -40 59 -50 88 -17 47 -17 52
-2 61 101 62 118 89 112 180 -3 48 -10 69 -32 98 l-29 37 26 58 c29 67 71 209
87 302 20 108 18 267 -3 321 l-18 46 36 164 c20 90 45 207 57 259 41 187 25
290 -58 377 -22 22 -70 78 -109 123 -80 94 -158 165 -335 306 -181 143 -262
203 -375 277 -56 37 -119 89 -143 117 -44 51 -44 51 -70 34 -24 -16 -26 -16
-39 2 -7 10 -13 13 -13 8 0 -6 4 -14 10 -20 7 -7 -1 -27 -23 -62 -17 -28 -44
-72 -60 -97 -22 -37 -31 -45 -47 -40 -15 5 -18 3 -14 -9 3 -8 -15 -46 -44 -88
-62 -92 -123 -212 -152 -303 -12 -38 -36 -98 -51 -132 -37 -80 -72 -188 -93
-288 -9 -44 -37 -142 -62 -218 -62 -188 -61 -281 1 -427 18 -41 42 -106 55
-145 13 -38 31 -76 42 -83 21 -15 49 -67 79 -148 45 -119 13 -195 -229 -539
-131 -185 -157 -218 -252 -316 -52 -53 -122 -125 -155 -159 -53 -54 -164 -130
-192 -130 -8 0 -33 32 -70 89 -1 2 -23 -4 -49 -13 -43 -14 -99 -22 -66 -9 6 2
10 9 7 14 -6 9 41 25 61 21 7 -1 14 4 18 13 3 8 4 15 3 15 -1 0 -20 -7 -42
-15 -48 -17 -89 -20 -65 -5 13 9 13 10 0 10 -13 0 -13 2 -1 9 11 7 9 10 -10
13 -16 2 -24 9 -23 21 1 9 -5 17 -13 17 -10 0 -14 7 -10 20 3 11 0 20 -5 20
-16 0 -63 53 -60 68 2 6 -2 12 -8 12 -5 0 -10 7 -10 15 0 9 -7 18 -16 22 -8 3
-19 16 -24 28 -6 16 -19 24 -51 28 -162 22 -81 220 183 449 60 52 76 54 33 4
-14 -16 -25 -31 -25 -33 0 -6 21 7 42 25 16 13 19 12 28 -14 11 -28 10 -42 -5
-92 -6 -18 -4 -22 14 -22 11 0 21 -6 21 -14 0 -7 6 -19 14 -25 8 -7 22 -42 32
-79 24 -92 31 -99 59 -58 13 19 46 57 73 85 46 47 50 54 40 77 -6 13 -15 24
-20 24 -19 0 -138 154 -138 178 0 17 -73 110 -147 189 -33 34 -79 95 -103 135
-23 40 -55 83 -69 96 -29 25 -98 93 -121 120 -8 9 -28 26 -43 37 -28 21 -48
71 -51 130 0 17 -8 36 -16 43 -13 12 -13 13 0 6 13 -7 13 -6 0 12 -8 10 -31
35 -51 54 -20 19 -34 41 -32 48 3 6 -2 12 -9 12 -8 0 -34 20 -58 45 -36 37
-41 45 -27 51 34 13 12 42 -92 117 -24 18 -54 52 -68 76 -23 42 -26 61 -21
153 2 31 -4 43 -29 65 -37 35 -61 85 -64 138 -3 70 -1 75 29 75 39 0 66 -33
86 -103 16 -56 18 -58 50 -55 19 1 47 -7 69 -21 20 -12 41 -20 45 -17 9 5 -14
110 -41 182 -25 68 -47 107 -88 151 -22 23 -52 70 -68 103 -16 33 -41 74 -55
91 -14 17 -27 35 -27 40 -4 31 -32 99 -40 99 -12 0 -18 43 -8 62 7 12 6 18 -1
18 -6 0 -8 4 -5 10 4 6 16 5 34 -5 16 -8 30 -12 33 -10 5 5 107 -92 158 -150
56 -65 104 -128 124 -165 11 -19 37 -53 58 -75 22 -22 50 -61 63 -87 23 -44
58 -77 98 -91 21 -8 23 9 1 21 -8 5 -16 15 -18 23 -1 8 -8 25 -15 38 -8 14
-10 36 -7 57 6 27 0 47 -30 101 -41 77 -101 160 -154 216 -20 20 -47 57 -60
82 -12 24 -30 52 -39 62 -39 45 -140 203 -160 253 l-23 56 22 48 c15 31 19 51
13 57 -14 14 -4 59 14 59 8 0 12 -4 9 -9 -4 -5 7 -12 23 -16 50 -11 89 -68
107 -155 5 -27 33 -62 118 -149 171 -175 300 -301 309 -301 14 0 7 27 -13 45
-11 10 -18 20 -15 23 3 3 -4 19 -14 36 -11 17 -21 40 -23 51 -1 11 -23 40 -47
65 -24 25 -66 74 -94 110 -27 36 -58 72 -68 81 -28 24 -89 116 -89 134 0 9
-23 74 -50 145 -28 71 -49 135 -48 142 2 8 -5 12 -16 10 -16 -3 -18 1 -11 30
4 18 9 55 11 81 3 41 1 47 -10 38 -19 -16 -46 12 -47 47 l-1 27 -9 -30 c-5
-18 -5 -44 2 -69 6 -23 8 -69 3 -114 -6 -64 -12 -82 -40 -119 -19 -25 -34 -50
-34 -56 0 -7 -5 -46 -10 -87 -6 -41 -11 -105 -11 -142 -1 -63 2 -72 40 -133
23 -36 39 -70 36 -75 -3 -4 -20 -12 -38 -15 -48 -11 -93 -42 -118 -81 -37 -60
-25 -118 53 -254 l66 -115 -39 -19 c-77 -36 -100 -103 -73 -213 75 -310 117
-430 185 -530 25 -35 36 -63 27 -63 -2 0 -68 -13 -147 -29 -80 -17 -149 -28
-153 -25 -4 3 -6 148 -3 322 8 513 14 684 24 778 6 49 15 199 21 334 24 573
106 782 373 943 124 75 257 120 257 87 0 -5 -5 -10 -10 -10 -6 0 -9 -5 -8 -12
2 -7 -16 -15 -43 -19 -41 -6 -57 -17 -134 -93 l-88 -86 25 -20 c28 -21 80
-105 155 -250 45 -85 85 -151 203 -332 21 -31 64 -107 95 -169 72 -140 107
-190 184 -256 109 -96 220 -166 301 -189 25 -7 71 -22 102 -33 31 -12 94 -23
140 -26 l83 -5 61 72 c55 66 118 117 130 106 2 -3 -9 -34 -25 -69 -16 -35 -27
-66 -25 -68 8 -9 87 55 146 119 80 85 118 130 118 139 0 19 117 96 245 162 50
25 126 65 170 89 44 23 105 51 134 61 48 17 57 17 70 5 12 -13 18 -13 43 0 26
14 31 13 55 -6 14 -11 39 -20 57 -19 l31 1 -33 9 c-44 13 -61 49 -38 84 9 14
21 25 26 25 5 0 7 7 4 15 -4 8 -1 15 5 15 6 0 11 9 11 20 0 11 7 20 15 20 8 0
21 12 29 28 8 15 33 47 56 71 22 25 40 50 40 56 0 6 11 22 25 35 17 16 21 26
14 31 -8 4 -4 11 11 19 13 7 34 25 48 41 28 34 39 36 66 10 33 -30 60 -34 87
-12 22 18 23 21 10 53 -24 59 -20 71 29 95 62 31 130 41 130 20 0 -11 8 -15
27 -14 24 2 27 -1 26 -30 0 -39 -3 -40 102 50 43 35 49 62 22 87 -20 19 -20
20 -1 22 10 0 25 2 32 2 7 1 16 7 20 13 5 7 23 14 42 16 23 3 37 11 44 26 5
11 14 21 21 21 7 0 20 18 30 40 10 22 24 45 32 51 7 6 14 21 14 33 1 17 2 17
6 4 6 -25 18 -22 31 7 6 14 16 25 22 25 5 0 10 6 10 13 0 29 61 135 80 140 13
3 18 11 14 20 -3 9 3 23 15 33 11 10 17 22 14 27 -4 6 1 8 11 4 11 -5 15 -3
10 5 -5 8 -2 9 9 5 16 -6 16 -4 2 16 -16 25 -16 24 42 95 13 15 23 33 23 40 0
7 10 17 23 22 12 5 17 9 10 9 -7 1 -17 11 -24 23 -10 18 -9 20 5 15 9 -4 15
-1 13 6 -1 7 6 11 16 11 17 -2 17 0 3 15 -21 23 -20 35 2 27 15 -5 15 -4 2 7
-16 13 -25 38 -13 36 5 -1 17 -1 28 0 19 1 18 3 -4 20 l-24 19 23 7 c12 4 19
10 14 14 -13 9 -16 31 -4 31 5 0 10 7 10 15 0 8 -8 15 -17 15 -15 0 -16 2 -3
10 13 8 13 11 1 19 -7 5 -12 14 -10 20 3 8 12 6 28 -5 18 -13 20 -18 10 -25
-11 -7 -10 -9 4 -9 9 0 17 -7 17 -15 0 -8 3 -15 6 -15 3 0 12 7 20 15 14 13
14 15 0 15 -8 0 -20 9 -26 20 -9 16 -8 22 5 26 17 7 21 34 4 34 -5 0 -7 -4 -4
-10 11 -17 -11 -11 -28 8 -22 24 -22 36 0 28 9 -4 20 -1 24 6 6 9 11 9 23 -2
9 -7 19 -10 23 -6 3 3 0 6 -8 6 -11 0 -11 2 1 10 13 8 12 10 -2 10 -10 0 -18
7 -18 15 0 9 -7 18 -16 22 -12 4 -12 8 -4 13 9 6 5 13 -14 25 -25 17 -26 19
-11 41 20 31 19 45 -2 37 -16 -6 -17 -5 -3 12 14 16 13 17 -8 11 -13 -5 -22
-3 -22 3 0 6 5 11 10 11 6 0 10 6 10 14 0 8 6 17 13 19 7 3 4 6 -7 6 -13 1
-17 6 -13 21 3 11 1 23 -4 26 -16 10 -10 23 19 38 23 13 19 21 -9 18 -3 -1 -6
5 -6 13 0 8 5 11 11 8 6 -4 5 0 -1 8 -10 12 -10 18 0 28 9 11 9 14 0 18 -7 3
-13 18 -13 34 0 16 5 29 13 29 9 0 9 2 -1 9 -11 6 -10 11 3 25 9 9 13 16 9 16
-3 0 -1 7 6 15 7 9 8 15 2 15 -5 0 -17 -12 -27 -26 -13 -20 -19 -23 -25 -13
-5 7 -4 21 1 31 6 10 6 18 1 18 -5 0 -9 12 -9 26 0 14 -9 32 -22 40 -20 15
-27 64 -8 64 5 0 4 6 -2 13 -6 8 -9 16 -7 18 2 2 6 18 10 34 l6 30 -20 -24
c-24 -27 -29 -25 -32 13 -1 15 -8 32 -15 38 -7 6 -13 16 -13 22 0 6 -9 28 -20
49 -11 20 -20 38 -19 39 2 7 -25 58 -31 58 -4 0 -10 24 -12 53 -3 34 -11 60
-24 73 -36 38 -69 79 -99 124 -16 25 -45 60 -62 77 -18 18 -33 39 -33 46 0 15
-71 87 -86 87 -9 0 -88 77 -193 188 -16 17 -34 32 -38 32 -4 0 -24 13 -43 30
-19 16 -47 32 -63 36 -16 3 -61 19 -101 36 -39 16 -107 38 -150 48 -59 14 -87
27 -111 50 -37 36 -58 41 -25 5 13 -14 20 -28 16 -32 -4 -5 -14 1 -22 12 -8
11 -17 19 -19 18 -13 -7 -25 -2 -19 9 4 7 3 8 -5 4 -17 -11 -109 22 -171 62
-57 37 -97 51 -84 30 5 -8 2 -9 -10 -5 -10 4 -22 7 -27 7 -6 0 -8 4 -5 9 5 8
-118 30 -159 28 -11 0 -31 3 -43 7 -22 7 -23 6 -13 -13z m48 -17 c-3 -3 -12
-4 -19 -1 -8 3 -5 6 6 6 11 1 17 -2 13 -5z m173 -59 c14 -8 21 -14 15 -14 -5
0 -21 6 -35 14 -14 8 -20 14 -15 14 6 0 21 -6 35 -14z m-1260 -519 c0 -3 -4
-8 -10 -11 -5 -3 -10 -1 -10 4 0 6 5 11 10 11 6 0 10 -2 10 -4z m907 -881 c0
-5 -10 -10 -22 -10 -12 0 -22 5 -22 10 0 6 10 10 22 10 12 0 22 -4 22 -10z
m119 5 c14 0 22 -4 19 -10 -3 -5 -1 -10 5 -10 7 0 10 -7 6 -15 -3 -8 -1 -15 4
-15 6 0 10 7 10 15 0 8 10 17 23 20 28 7 81 -11 72 -25 -3 -5 0 -10 7 -10 8
-1 6 -6 -6 -15 -17 -13 -22 -13 -42 0 -32 21 -44 19 -14 -2 14 -10 39 -16 62
-14 21 1 38 -1 38 -4 0 -17 -35 -37 -71 -40 -75 -8 -56 -18 24 -13 86 6 106
-4 55 -28 -30 -14 -13 -14 22 0 8 3 22 1 30 -4 13 -8 10 -14 -15 -35 l-30 -24
28 -1 c16 0 26 4 22 10 -3 6 -4 10 -1 10 2 0 13 3 23 6 15 5 16 4 3 -6 -12 -9
-9 -10 15 -5 17 3 35 11 40 17 7 8 5 9 -5 4 -8 -4 -6 0 4 8 21 17 41 22 32 7
-7 -11 31 -6 72 11 30 12 35 11 47 -6 8 -10 19 -15 25 -11 6 3 19 -4 30 -17
11 -13 19 -18 18 -12 -4 16 3 18 30 10 12 -4 20 -11 17 -16 -3 -5 4 -11 15
-15 11 -3 20 -11 20 -16 0 -5 5 -9 11 -9 6 0 17 -7 25 -15 9 -8 12 -15 7 -15
-4 0 3 -7 16 -16 l24 -17 -24 -13 -24 -13 22 -1 c22 0 27 -19 12 -45 -4 -5 -5
-18 -3 -28 1 -12 -2 -17 -11 -13 -8 3 -17 1 -20 -5 -4 -5 -1 -8 7 -7 8 2 13
-6 12 -19 -1 -13 3 -23 7 -23 5 0 9 6 9 12 0 7 7 3 15 -9 8 -12 29 -24 45 -28
17 -4 30 -11 30 -16 0 -5 14 -7 30 -5 17 2 33 0 35 -4 3 -5 13 -6 23 -4 9 3
38 -2 64 -10 27 -8 45 -10 42 -5 -7 12 3 11 27 -2 11 -5 17 -14 14 -19 -3 -4
3 -6 14 -3 12 3 24 -3 34 -17 8 -12 20 -19 26 -16 14 9 23 -35 30 -137 1 -5 5
-6 10 -2 5 3 12 1 15 -4 4 -5 -2 -12 -13 -16 -13 -4 -19 -15 -19 -33 1 -15 -6
-41 -14 -57 -9 -17 -14 -42 -13 -57 2 -16 0 -28 -3 -28 -4 0 -12 -10 -18 -23
-6 -12 -21 -41 -33 -64 -12 -24 -33 -50 -46 -59 -14 -9 -25 -22 -25 -29 0 -8
-15 -23 -34 -34 -41 -26 -44 -33 -41 -94 1 -40 -1 -47 -14 -42 -11 3 -10 0 3
-10 19 -14 19 -15 0 -36 -18 -20 -18 -20 9 -14 33 9 36 -2 5 -14 -18 -7 -28
-4 -45 12 -13 11 -23 26 -23 34 0 7 -11 15 -25 19 -14 3 -30 15 -36 25 -5 11
-16 19 -25 19 -8 0 -19 11 -24 25 -10 26 -24 32 -35 15 -3 -5 -1 -10 5 -10 6
0 8 -5 4 -12 -5 -8 -13 -5 -25 10 -9 12 -24 22 -32 22 -8 0 -20 7 -27 15 -7 8
-19 15 -28 15 -8 0 -13 3 -9 6 8 9 -20 35 -41 39 -9 1 -16 8 -14 14 1 7 -16
20 -38 30 -22 10 -38 20 -35 23 15 14 -223 34 -342 28 -23 -1 -54 1 -68 4 -14
4 -25 2 -25 -4 0 -18 -64 -10 -115 14 -69 32 -188 127 -175 140 14 14 13 32
-2 48 -7 7 -19 29 -26 48 -14 36 -15 39 -27 78 -4 12 -11 22 -16 22 -5 0 -16
17 -24 38 -9 21 -34 53 -56 72 -23 19 -54 47 -70 62 -16 15 -39 30 -50 33 -11
4 -18 9 -15 12 8 9 -21 33 -39 33 -12 0 -15 5 -11 16 6 14 1 16 -36 10 -30 -4
-39 -3 -28 4 12 8 12 10 1 10 -11 0 -11 3 -1 15 10 12 10 15 -1 15 -11 0 -11
2 -1 8 8 6 -5 16 -38 30 -49 22 -69 39 -30 27 32 -10 23 5 -10 16 -16 6 -27
15 -24 21 4 6 -2 7 -17 3 -21 -7 -22 -6 -7 9 9 9 21 16 27 16 6 0 8 7 5 15 -7
17 -9 16 68 19 56 3 108 21 108 38 0 4 8 8 19 8 10 0 34 17 54 39 22 24 39 36
47 31 9 -6 9 -9 -1 -13 -8 -3 -4 -6 9 -6 12 -1 25 5 28 13 3 8 13 12 25 9 24
-7 24 -12 2 -29 -10 -7 -13 -14 -7 -14 6 0 24 10 39 22 l28 21 -12 -21 c-15
-28 0 -29 17 -1 8 13 19 18 29 14 9 -3 19 -1 23 5 4 6 19 13 34 14 21 3 24 1
15 -10 -6 -7 -8 -18 -5 -23 7 -10 67 20 94 46 7 7 20 13 28 13 8 0 23 9 34 20
11 11 25 18 32 16 7 -1 10 -1 5 1 -13 8 5 25 20 19 8 -3 26 -6 39 -6z m-963
-469 c59 -21 201 -91 233 -117 11 -8 -26 8 -81 35 -109 53 -236 96 -263 88 -9
-3 -26 -8 -37 -12 -20 -7 -20 -6 -1 9 26 21 81 20 149 -3z m2822 -41 c3 -6 -1
-7 -9 -4 -18 7 -21 14 -7 14 6 0 13 -4 16 -10z m-3525 -55 c-5 -14 -10 -48
-11 -75 -1 -28 -7 -50 -12 -50 -11 0 -4 120 7 139 14 22 26 11 16 -14z m487
-32 c-42 -83 -69 -223 -43 -223 8 0 17 11 20 25 4 14 11 23 17 19 12 -7 49 24
49 41 0 7 6 17 13 23 14 12 67 4 67 -10 0 -5 10 -19 21 -31 12 -12 27 -36 34
-52 16 -37 44 -64 71 -67 25 -3 114 22 114 32 0 5 -22 30 -50 56 -27 26 -48
49 -46 51 2 2 21 -7 41 -22 43 -29 74 -31 114 -10 33 16 42 34 34 64 -9 36 38
26 85 -16 35 -33 42 -45 46 -90 5 -38 2 -55 -9 -67 -14 -13 -11 -14 20 -9 31
5 35 3 35 -16 0 -21 -18 -28 -36 -12 -5 4 -22 11 -39 14 -21 4 -16 0 18 -15
26 -11 47 -27 47 -34 0 -8 9 -19 20 -26 11 -7 20 -19 20 -26 0 -9 7 -11 20 -7
24 8 29 -22 5 -31 -8 -4 -12 -11 -9 -16 4 -6 3 -13 -2 -17 -5 -3 -17 -16 -27
-27 -17 -21 -17 -22 8 -38 21 -14 29 -15 41 -5 8 6 14 8 14 3 0 -5 -12 -18
-26 -31 -14 -12 -23 -27 -19 -32 10 -16 54 10 137 83 40 35 82 66 94 70 26 8
122 -40 147 -75 16 -23 17 -32 7 -80 -7 -30 -14 -93 -17 -141 -5 -84 -4 -86
16 -81 12 3 21 10 22 17 1 23 9 53 19 77 9 22 10 21 4 -8 -3 -18 -3 -33 -1
-33 19 0 37 15 37 30 0 28 -11 51 -21 44 -21 -13 0 46 26 72 9 9 17 7 36 -7
13 -10 32 -19 41 -19 12 0 17 -7 15 -22 -1 -17 3 -22 16 -20 9 2 25 -2 35 -7
15 -9 15 -10 -5 -11 -39 0 -34 -18 12 -43 48 -27 51 -27 35 4 -7 12 -7 19 -1
19 5 0 13 -9 16 -20 9 -28 67 -70 96 -70 33 0 88 38 89 61 0 4 -9 9 -20 12
-26 7 -26 37 -1 37 11 0 26 2 34 6 33 12 141 -126 121 -157 -3 -5 0 -16 6 -24
14 -17 6 -45 -13 -45 -9 0 -13 -12 -13 -35 1 -37 6 -41 36 -25 14 7 25 3 53
-24 24 -22 45 -33 67 -34 18 0 34 -3 37 -6 3 -3 19 4 34 15 33 23 38 13 12
-22 -25 -34 -44 -69 -38 -69 13 0 62 35 82 59 19 21 23 23 23 9 0 -25 28 -22
51 5 10 12 18 16 19 10 0 -7 -5 -13 -12 -13 -6 0 -8 -3 -5 -7 11 -10 -14 -33
-37 -34 -20 0 -21 -1 -1 -9 11 -5 14 -9 6 -9 -7 -1 -11 -7 -7 -16 3 -9 -10
-30 -33 -54 -21 -21 -41 -46 -44 -55 -4 -9 -11 -16 -17 -16 -5 0 -10 -6 -10
-13 0 -7 -10 -24 -22 -37 -13 -14 -22 -27 -21 -31 1 -3 -11 -20 -28 -38 -16
-18 -29 -37 -29 -42 0 -6 -4 -7 -10 -4 -5 3 -10 2 -10 -4 0 -5 6 -12 13 -14 6
-3 2 -6 -11 -6 -13 -1 -20 -5 -17 -11 3 -5 -3 -10 -13 -10 -14 0 -21 -9 -26
-31 -4 -19 -13 -33 -26 -36 -18 -5 -24 -23 -23 -70 0 -6 -5 -9 -12 -7 -7 3
-25 -6 -40 -20 -28 -26 -77 -42 -95 -31 -6 4 -10 3 -9 -2 4 -23 -2 -32 -18
-26 -10 4 -14 2 -10 -4 5 -7 -6 -14 -25 -18 -21 -5 -33 -4 -36 4 -2 6 -11 11
-19 11 -12 0 -13 -3 -4 -13 9 -11 5 -14 -21 -15 -25 -1 -29 2 -18 9 18 13 6 9
-35 -11 -33 -16 -61 -40 -48 -41 4 0 -2 -4 -15 -9 -12 -5 -25 -9 -28 -9 -3 0
-21 -11 -40 -26 -19 -15 -41 -24 -49 -21 -18 6 -85 -12 -101 -29 -7 -7 -37
-20 -66 -29 -30 -10 -65 -31 -81 -48 -15 -17 -39 -31 -52 -32 -14 0 -24 -5
-24 -11 3 -25 -2 -36 -13 -33 -7 3 -23 -9 -36 -24 -15 -17 -31 -27 -39 -24 -8
4 -27 -3 -43 -14 -15 -11 -34 -20 -42 -20 -7 0 -29 -11 -48 -24 -32 -21 -36
-22 -48 -7 -7 9 -11 11 -8 5 3 -7 -5 -14 -19 -16 -14 -3 -26 0 -29 8 -3 7 -14
12 -25 11 -11 0 -17 -5 -14 -11 4 -5 -1 -7 -12 -2 -11 4 -22 2 -27 -6 -6 -10
-10 -10 -18 2 -6 10 -10 11 -10 3 0 -21 -28 -15 -41 9 -10 19 -13 20 -23 6
-10 -13 -15 -14 -29 -3 -9 6 -14 15 -10 18 3 4 -6 7 -20 7 -15 0 -27 4 -27 9
0 5 -9 13 -21 16 -15 5 -17 10 -10 19 6 7 8 16 4 19 -11 12 -23 8 -23 -8 0 -8
-4 -15 -9 -15 -13 0 -32 26 -24 33 3 4 -4 7 -17 7 -18 0 -20 3 -11 14 9 10 8
16 -4 26 -9 7 -15 8 -15 2 0 -5 -9 -8 -20 -5 -14 4 -19 11 -15 22 5 18 -33 49
-44 34 -3 -4 -18 -8 -33 -8 -26 -1 -33 6 -29 28 1 4 -11 6 -26 5 -21 -2 -28 1
-27 14 1 14 -4 16 -22 12 -27 -7 -34 13 -9 22 8 4 15 10 15 15 0 6 -9 5 -20
-1 -29 -16 -40 -5 -30 31 12 42 4 57 -37 65 -22 4 -30 9 -23 14 9 6 7 13 -8
26 -16 13 -19 21 -10 31 8 10 7 13 -4 13 -15 0 -16 12 -9 108 1 15 7 22 22 22
11 0 18 -4 15 -9 -3 -5 4 -11 16 -14 12 -4 19 -9 16 -13 -7 -6 50 -64 64 -64
3 0 10 -9 13 -20 3 -11 13 -20 20 -20 9 0 12 -6 9 -15 -5 -11 1 -15 19 -15 14
0 27 -4 29 -9 4 -12 174 -101 192 -101 8 0 21 -6 28 -13 7 -8 25 -16 38 -19
35 -8 161 -56 174 -67 14 -11 66 -21 139 -28 46 -4 62 -1 78 13 14 13 16 20 8
31 -7 8 -8 13 -1 13 20 0 20 39 0 62 -17 20 -32 24 -111 29 -75 4 -105 12
-162 38 -130 60 -210 128 -242 207 -10 24 -21 44 -25 44 -5 0 -8 6 -8 14 0 7
-7 19 -15 26 -23 19 -19 49 5 43 11 -3 20 -9 20 -14 0 -4 10 -14 23 -21 65
-37 124 -76 156 -105 39 -37 137 -87 191 -98 19 -4 52 -16 72 -26 21 -11 47
-19 58 -19 12 0 31 -5 43 -12 12 -6 29 -13 37 -14 8 -1 39 -6 68 -10 28 -4 52
-10 52 -15 0 -16 32 -39 55 -39 14 0 29 9 35 20 15 28 -40 90 -82 90 -16 0
-48 11 -71 24 -23 13 -68 32 -99 42 -31 9 -56 22 -55 27 1 6 -12 13 -29 17
-41 9 -144 60 -141 70 1 5 -24 33 -57 63 l-58 55 63 -3 c35 -2 84 -11 109 -20
60 -22 81 -26 94 -17 6 5 23 9 38 10 21 1 26 -2 21 -14 -5 -13 -2 -15 16 -9
12 4 27 2 34 -3 19 -15 77 -25 77 -13 0 6 16 17 35 26 20 8 43 21 51 30 9 8
26 15 39 15 13 0 26 4 29 9 7 10 -81 81 -100 81 -7 0 -14 5 -16 11 -2 6 -38
15 -80 19 -73 7 -78 9 -123 54 -29 28 -45 52 -42 60 4 9 -1 17 -12 21 -11 3
-21 14 -23 23 -4 13 -23 21 -68 30 -75 14 -98 34 -93 82 5 44 60 98 132 131
55 26 63 38 31 46 -16 4 -18 8 -9 19 22 27 0 26 -26 0 -14 -14 -32 -26 -40
-26 -8 0 -15 -7 -15 -15 0 -8 -8 -23 -17 -33 -42 -43 -103 -116 -103 -123 0
-4 -9 -10 -19 -14 -10 -3 -22 -17 -25 -32 -8 -28 -30 -55 -39 -46 -4 3 -9 -12
-13 -34 -6 -38 -8 -40 -54 -49 -50 -11 -74 -8 -64 7 3 5 -7 9 -23 9 -22 0 -25
2 -13 10 11 7 1 10 -35 10 -36 0 -46 3 -35 10 11 7 7 10 -18 10 -23 0 -31 -4
-26 -12 5 -7 0 -9 -14 -6 -23 6 -47 -13 -34 -28 4 -4 -1 -2 -12 6 -11 8 -14
16 -7 18 6 2 8 9 4 15 -12 19 -12 37 -2 37 6 0 7 5 4 10 -3 6 -1 10 4 10 6 0
11 6 11 14 0 8 5 27 12 43 6 15 12 52 14 81 1 29 5 59 8 67 3 8 1 15 -5 15 -6
0 -7 4 -4 10 3 5 0 7 -8 4 -8 -3 -17 2 -21 11 -3 9 -2 13 4 10 6 -4 17 1 26 9
8 9 11 16 6 16 -7 0 -10 33 -3 48 0 2 13 -9 28 -23 26 -23 53 -33 53 -19 0 9
-23 28 -52 43 -23 12 -25 17 -17 40 6 15 7 27 1 29 -5 1 4 17 19 33 18 20 29
42 29 60 0 29 14 40 23 17 3 -7 10 0 16 16 10 24 9 32 -6 48 -14 15 -14 21 -4
27 10 6 9 10 -3 14 -10 4 -16 19 -16 40 0 19 -8 42 -19 54 -15 16 -17 23 -8
32 9 9 8 11 -5 6 -13 -5 -18 -2 -18 10 0 10 5 13 12 9 7 -5 8 -3 3 6 -25 41
23 257 68 307 26 29 32 23 14 -14z m423 -78 c0 -8 -6 -15 -13 -15 -8 0 -14 7
-14 15 0 8 6 15 14 15 7 0 13 -7 13 -15z m-802 -64 c-13 -4 -31 15 -34 35 -2
13 3 11 20 -7 13 -13 19 -26 14 -28z m1230 -196 c-3 -3 -9 2 -12 12 -6 14 -5
15 5 6 7 -7 10 -15 7 -18z m486 -211 c81 -20 211 -68 311 -114 159 -73 345
-204 345 -243 0 -7 -19 9 -43 35 -95 105 -373 247 -596 305 -92 23 -131 25
-176 9 -20 -8 -20 -7 -1 8 25 20 81 20 160 0z m391 -122 c-3 -3 -11 0 -18 7
-9 10 -8 11 6 5 10 -3 15 -9 12 -12z m-275 -42 c0 -5 -4 -10 -10 -10 -5 0 -10
5 -10 10 0 6 5 10 10 10 6 0 10 -4 10 -10z m-157 -17 c-7 -2 -21 -2 -30 0 -10
3 -4 5 12 5 17 0 24 -2 18 -5z m457 -33 c8 -5 11 -10 5 -10 -5 0 -17 5 -25 10
-8 5 -10 10 -5 10 6 0 17 -5 25 -10z m337 -35 c0 -8 -4 -12 -9 -9 -4 3 -8 -2
-8 -10 0 -9 5 -16 12 -16 9 0 9 -3 -1 -12 -10 -11 -15 -9 -27 7 -9 12 -11 21
-4 23 5 2 10 10 10 18 0 8 6 14 13 14 8 0 14 -7 14 -15z m-277 -11 c0 -2 -9
-4 -20 -4 -11 0 -20 4 -20 9 0 5 9 7 20 4 11 -3 20 -7 20 -9z m5 -34 c-3 -5
-11 -10 -16 -10 -6 0 -7 5 -4 10 3 6 11 10 16 10 6 0 7 -4 4 -10z m505 -190
c0 -5 -8 -10 -17 -10 -10 0 -27 -7 -37 -15 -15 -11 -22 -12 -27 -3 -4 7 0 17
9 25 20 15 72 17 72 3z m-2504 -300 c8 0 14 -7 14 -15 0 -8 4 -15 9 -15 5 0
11 -13 13 -30 3 -16 3 -30 1 -30 -11 0 -33 30 -39 54 -3 14 -10 26 -15 26 -5
0 -9 8 -8 18 0 10 3 12 6 5 2 -7 11 -13 19 -13z m-6 -55 c0 -8 -2 -15 -4 -15
-2 0 -6 7 -10 15 -3 8 -1 15 4 15 6 0 10 -7 10 -15z m84 -34 c-6 -6 -11 1 -18
29 l-7 25 15 -25 c8 -14 12 -27 10 -29z m-37 -477 c-3 -3 -12 -4 -19 -1 -8 3
-5 6 6 6 11 1 17 -2 13 -5z m113 -54 c0 -5 -5 -10 -11 -10 -5 0 -7 5 -4 10 3
6 8 10 11 10 2 0 4 -4 4 -10z m37 -17 c-4 -3 -2 -12 4 -20 9 -10 8 -13 -5 -13
-9 0 -16 6 -16 13 0 14 9 27 18 27 3 0 2 -3 -1 -7z m443 -173 c0 -5 -5 -10
-11 -10 -5 0 -7 5 -4 10 3 6 8 10 11 10 2 0 4 -4 4 -10z m-1462 -1292 c2 -4
12 -8 23 -8 29 0 34 -27 15 -79 -10 -25 -18 -50 -19 -56 -3 -16 -22 -33 -30
-28 -4 3 -3 11 3 18 8 9 8 20 2 31 -9 15 -10 15 -17 -5 -4 -13 -8 -33 -10 -44
-1 -12 -11 -44 -22 -72 -11 -27 -18 -55 -16 -61 2 -6 -3 -17 -11 -23 -8 -7
-13 -18 -10 -26 3 -7 1 -16 -5 -20 -7 -4 -11 4 -11 19 0 14 -4 26 -10 26 -5 0
-10 -9 -10 -20 0 -11 -3 -20 -7 -20 -5 0 -4 78 0 172 8 165 10 174 33 195 19
17 31 21 61 16 21 -3 40 -10 41 -15z m58 -123 c-14 -14 -16 -14 -16 -2 0 9 6
17 13 20 19 7 21 -1 3 -18z m121 -241 c-14 -14 -34 -49 -43 -77 -22 -68 -25
-73 -36 -54 -14 26 29 116 66 138 41 25 44 24 13 -7z m-280 -46 c-3 -8 -6 -5
-6 6 -1 11 2 17 5 13 3 -3 4 -12 1 -19z m196 -140 c-3 -18 -10 -37 -15 -43 -7
-7 -8 -1 -3 15 3 14 9 33 11 43 9 29 14 19 7 -15z m-402 -281 c16 -4 18 -11
13 -32 -4 -18 -1 -32 11 -45 10 -11 14 -24 9 -32 -5 -7 -7 -21 -6 -30 2 -10
-15 -64 -37 -120 -21 -57 -42 -110 -44 -118 -9 -27 -7 102 3 190 5 47 11 100
12 119 1 18 8 36 15 38 7 3 13 9 13 15 0 5 -4 6 -10 3 -6 -4 -9 7 -9 27 1 22
3 26 6 12 2 -12 13 -24 24 -27z m-8 -404 c-3 -27 -3 -27 8 -5 7 12 16 22 21
22 10 0 11 -34 1 -44 -5 -4 -8 -11 -9 -14 0 -4 -3 -33 -8 -64 -7 -57 -19 -78
-31 -58 -10 17 -25 11 -25 -9 0 -11 -4 -23 -10 -26 -5 -3 -10 -16 -10 -27 0
-12 -3 -19 -6 -15 -3 3 -3 52 1 108 4 59 11 96 15 88 6 -9 11 -4 16 17 13 53
44 76 37 27z m1640 -870 c-7 -2 -21 -2 -30 0 -10 3 -4 5 12 5 17 0 24 -2 18
-5z m94 -189 c-3 -3 -12 -4 -19 -1 -8 3 -5 6 6 6 11 1 17 -2 13 -5z m-104 -31
c-7 -2 -19 -2 -25 0 -7 3 -2 5 12 5 14 0 19 -2 13 -5z"/>
<path d="M4881 5271 c-10 -7 -11 -9 -1 -13 21 -7 70 3 64 13 -7 11 -45 11 -63
0z"/>
<path d="M5705 5110 c3 -5 11 -10 16 -10 6 0 7 5 4 10 -3 6 -11 10 -16 10 -6
0 -7 -4 -4 -10z"/>
<path d="M4949 5108 c-7 -25 -3 -41 14 -53 19 -13 20 -16 5 -27 -9 -7 -17 -24
-18 -38 -3 -39 -1 -43 16 -26 8 9 12 20 9 26 -3 5 -1 10 5 10 7 0 10 7 7 15
-4 8 -1 17 5 21 7 5 6 11 -6 19 -15 12 -15 13 4 18 11 3 20 11 20 19 0 11 -2
11 -9 0 -7 -11 -11 -11 -24 2 -14 15 -26 20 -28 14z"/>
<path d="M5760 5045 c19 -19 41 -35 48 -35 6 0 12 -4 12 -10 0 -5 7 -10 15
-10 9 0 -4 18 -31 45 -25 25 -53 45 -62 45 -11 0 -6 -10 18 -35z"/>
<path d="M6030 4986 c0 -2 7 -7 16 -10 8 -3 12 -2 9 4 -6 10 -25 14 -25 6z"/>
<path d="M5486 4953 c7 -39 14 -42 14 -5 0 18 -4 32 -9 32 -5 0 -7 -12 -5 -27z"/>
<path d="M5875 4970 c3 -5 14 -10 23 -10 15 0 15 2 2 10 -20 13 -33 13 -25 0z"/>
<path d="M6035 4951 c-11 -5 -38 -7 -60 -4 -35 3 -37 2 -18 -8 23 -12 88 -5
98 11 7 11 7 11 -20 1z"/>
<path d="M6072 4468 c-14 -14 -16 -28 -3 -28 9 0 24 30 18 36 -2 2 -9 -2 -15
-8z"/>
<path d="M5951 4424 c-16 -12 -20 -19 -12 -27 12 -12 -36 -37 -73 -37 -20 -1
-20 -1 -3 -14 17 -13 16 -15 -10 -36 -31 -24 -26 -23 32 5 53 26 52 25 35 36
-12 8 -10 9 7 4 30 -8 79 5 61 16 -9 6 -6 9 12 9 19 0 28 8 37 30 11 30 11 30
-26 30 -20 0 -47 -7 -60 -16z"/>
<path d="M4555 3963 c-2 -7 1 -13 8 -13 7 0 21 6 30 13 16 11 15 12 -8 12 -13
0 -27 -6 -30 -12z"/>
<path d="M4610 3920 c0 -5 5 -10 10 -10 6 0 10 5 10 10 0 6 -4 10 -10 10 -5 0
-10 -4 -10 -10z"/>
<path d="M4938 7753 c6 -2 18 -2 25 0 6 3 1 5 -13 5 -14 0 -19 -2 -12 -5z"/>
<path d="M4415 7180 c-3 -6 1 -7 9 -4 18 7 21 14 7 14 -6 0 -13 -4 -16 -10z"/>
<path d="M7495 6080 c3 -5 8 -10 11 -10 2 0 4 5 4 10 0 6 -5 10 -11 10 -5 0
-7 -4 -4 -10z"/>
<path d="M6300 4417 c-38 -9 -41 -12 -19 -15 15 -2 42 4 60 12 40 17 22 18
-41 3z"/>
<path d="M5839 4107 c-42 -23 -82 -49 -88 -59 -11 -18 -10 -18 20 -3 26 14
119 72 154 97 27 20 -17 1 -86 -35z"/>
<path d="M3990 3323 c0 -5 7 -18 15 -29 13 -18 14 -18 8 4 -5 22 -23 41 -23
25z"/>
<path d="M3861 3025 c20 -33 39 -46 39 -26 0 12 -40 61 -50 61 -5 0 0 -16 11
-35z"/>
<path d="M4098 2273 c7 -3 16 -2 19 1 4 3 -2 6 -13 5 -11 0 -14 -3 -6 -6z"/>
<path d="M4148 2223 c7 -3 16 -2 19 1 4 3 -2 6 -13 5 -11 0 -14 -3 -6 -6z"/>
<path d="M4870 1701 c-16 -20 -87 -61 -106 -61 -6 0 -21 -11 -34 -25 -37 -39
-5 -30 68 20 96 65 120 85 102 85 -8 0 -22 -9 -30 -19z"/>
<path d="M4375 990 c-3 -6 1 -7 9 -4 18 7 21 14 7 14 -6 0 -13 -4 -16 -10z"/>
</g>
</svg>
